<?xml version="1.0" encoding="UTF-8" standalone="no"?>
<!DOCTYPE svg PUBLIC "-//W3C//DTD SVG 1.1//EN"
 "http://www.w3.org/Graphics/SVG/1.1/DTD/svg11.dtd">
<!-- Generated by graphviz version 2.38.0 (20140413.2041)
 -->
<!-- Title: simplified Pages: 1 -->
<svg width="575pt" height="476pt"
 viewBox="0.00 0.00 575.04 476.00" xmlns="http://www.w3.org/2000/svg" xmlns:xlink="http://www.w3.org/1999/xlink">
<g id="graph0" class="graph" transform="scale(1 1) rotate(0) translate(4 472)">
<title>simplified</title>
<polygon fill="white" stroke="none" points="-4,4 -4,-472 571.036,-472 571.036,4 -4,4"/>
<!-- Completions.cpp -->
<g id="node1" class="node"><title>Completions.cpp</title>
<ellipse fill="none" stroke="black" cx="338.641" cy="-450" rx="72.5877" ry="18"/>
<text text-anchor="middle" x="338.641" y="-446.3" font-family="Times,serif" font-size="14.00">Completions.cpp</text>
</g>
<!-- netmf_pwr_functions.cpp -->
<g id="node2" class="node"><title>netmf_pwr_functions.cpp</title>
<ellipse fill="none" stroke="black" cx="104.641" cy="-378" rx="104.782" ry="18"/>
<text text-anchor="middle" x="104.641" y="-374.3" font-family="Times,serif" font-size="14.00">netmf_pwr_functions.cpp</text>
</g>
<!-- Completions.cpp&#45;&gt;netmf_pwr_functions.cpp -->
<g id="edge1" class="edge"><title>Completions.cpp&#45;&gt;netmf_pwr_functions.cpp</title>
<path fill="none" stroke="black" d="M294.076,-435.669C257.203,-424.638 204.505,-408.874 164.047,-396.771"/>
<polygon fill="black" stroke="black" points="164.889,-393.37 154.305,-393.857 162.883,-400.076 164.889,-393.37"/>
</g>
<!-- eMote_Time_functions.cpp -->
<g id="node3" class="node"><title>eMote_Time_functions.cpp</title>
<ellipse fill="none" stroke="black" cx="338.641" cy="-378" rx="111.581" ry="18"/>
<text text-anchor="middle" x="338.641" y="-374.3" font-family="Times,serif" font-size="14.00">eMote_Time_functions.cpp</text>
</g>
<!-- Completions.cpp&#45;&gt;eMote_Time_functions.cpp -->
<g id="edge2" class="edge"><title>Completions.cpp&#45;&gt;eMote_Time_functions.cpp</title>
<path fill="none" stroke="black" d="M338.641,-431.697C338.641,-423.983 338.641,-414.712 338.641,-406.112"/>
<polygon fill="black" stroke="black" points="342.141,-406.104 338.641,-396.104 335.141,-406.104 342.141,-406.104"/>
</g>
<!-- events.cpp -->
<g id="node4" class="node"><title>events.cpp</title>
<ellipse fill="none" stroke="black" cx="517.641" cy="-378" rx="49.2915" ry="18"/>
<text text-anchor="middle" x="517.641" y="-374.3" font-family="Times,serif" font-size="14.00">events.cpp</text>
</g>
<!-- Completions.cpp&#45;&gt;events.cpp -->
<g id="edge3" class="edge"><title>Completions.cpp&#45;&gt;events.cpp</title>
<path fill="none" stroke="black" d="M375.73,-434.496C404.836,-423.113 445.362,-407.265 475.657,-395.418"/>
<polygon fill="black" stroke="black" points="477.068,-398.624 485.107,-391.723 474.519,-392.105 477.068,-398.624"/>
</g>
<!-- eMote_Time.cpp -->
<g id="node5" class="node"><title>eMote_Time.cpp</title>
<ellipse fill="none" stroke="black" cx="338.641" cy="-306" rx="73.387" ry="18"/>
<text text-anchor="middle" x="338.641" y="-302.3" font-family="Times,serif" font-size="14.00">eMote_Time.cpp</text>
</g>
<!-- eMote_Time_functions.cpp&#45;&gt;eMote_Time.cpp -->
<g id="edge4" class="edge"><title>eMote_Time_functions.cpp&#45;&gt;eMote_Time.cpp</title>
<path fill="none" stroke="black" d="M338.641,-359.697C338.641,-351.983 338.641,-342.712 338.641,-334.112"/>
<polygon fill="black" stroke="black" points="342.141,-334.104 338.641,-324.104 335.141,-334.104 342.141,-334.104"/>
</g>
<!-- VirtualTimer_pal.cpp -->
<g id="node6" class="node"><title>VirtualTimer_pal.cpp</title>
<ellipse fill="none" stroke="black" cx="397.641" cy="-234" rx="89.8845" ry="18"/>
<text text-anchor="middle" x="397.641" y="-230.3" font-family="Times,serif" font-size="14.00">VirtualTimer_pal.cpp</text>
</g>
<!-- eMote_Time.cpp&#45;&gt;VirtualTimer_pal.cpp -->
<g id="edge5" class="edge"><title>eMote_Time.cpp&#45;&gt;VirtualTimer_pal.cpp</title>
<path fill="none" stroke="black" d="M352.923,-288.055C360.098,-279.543 368.926,-269.068 376.838,-259.681"/>
<polygon fill="black" stroke="black" points="379.721,-261.691 383.49,-251.789 374.369,-257.18 379.721,-261.691"/>
</g>
<!-- netmf_timers.cpp -->
<g id="node7" class="node"><title>netmf_timers.cpp</title>
<ellipse fill="none" stroke="black" cx="282.641" cy="-162" rx="74.9875" ry="18"/>
<text text-anchor="middle" x="282.641" y="-158.3" font-family="Times,serif" font-size="14.00">netmf_timers.cpp</text>
</g>
<!-- eMote_Time.cpp&#45;&gt;netmf_timers.cpp -->
<g id="edge6" class="edge"><title>eMote_Time.cpp&#45;&gt;netmf_timers.cpp</title>
<path fill="none" stroke="black" d="M322.674,-288.175C314.241,-278.356 304.46,-265.309 298.641,-252 290.059,-232.372 286.08,-208.383 284.235,-190.258"/>
<polygon fill="black" stroke="black" points="287.704,-189.744 283.358,-180.082 280.73,-190.345 287.704,-189.744"/>
</g>
<!-- VirtualTimer_pal.cpp&#45;&gt;netmf_timers.cpp -->
<g id="edge8" class="edge"><title>VirtualTimer_pal.cpp&#45;&gt;netmf_timers.cpp</title>
<path fill="none" stroke="black" d="M370.968,-216.765C355.035,-207.066 334.617,-194.638 317.426,-184.174"/>
<polygon fill="black" stroke="black" points="319.134,-181.116 308.772,-178.906 315.494,-187.095 319.134,-181.116"/>
</g>
<!-- VirtualTimer.cpp -->
<g id="node8" class="node"><title>VirtualTimer.cpp</title>
<ellipse fill="none" stroke="black" cx="366.641" cy="-18" rx="74.187" ry="18"/>
<text text-anchor="middle" x="366.641" y="-14.3" font-family="Times,serif" font-size="14.00">VirtualTimer.cpp</text>
</g>
<!-- VirtualTimer_pal.cpp&#45;&gt;VirtualTimer.cpp -->
<g id="edge9" class="edge"><title>VirtualTimer_pal.cpp&#45;&gt;VirtualTimer.cpp</title>
<path fill="none" stroke="black" d="M391.279,-215.849C382.381,-178.832 369.412,-91.1809 365.916,-46.3863"/>
<polygon fill="black" stroke="black" points="369.397,-45.9827 365.252,-36.2325 362.412,-46.4396 369.397,-45.9827"/>
</g>
<!-- netmf_advancedtimer.cpp -->
<g id="node9" class="node"><title>netmf_advancedtimer.cpp</title>
<ellipse fill="none" stroke="black" cx="217.641" cy="-90" rx="105.082" ry="18"/>
<text text-anchor="middle" x="217.641" y="-86.3" font-family="Times,serif" font-size="14.00">netmf_advancedtimer.cpp</text>
</g>
<!-- netmf_timers.cpp&#45;&gt;netmf_advancedtimer.cpp -->
<g id="edge12" class="edge"><title>netmf_timers.cpp&#45;&gt;netmf_advancedtimer.cpp</title>
<path fill="none" stroke="black" d="M266.906,-144.055C259.039,-135.583 249.368,-125.168 240.684,-115.815"/>
<polygon fill="black" stroke="black" points="243.051,-113.222 233.682,-108.275 237.922,-117.985 243.051,-113.222"/>
</g>
<!-- VirtualTimer.cpp&#45;&gt;VirtualTimer_pal.cpp -->
<g id="edge11" class="edge"><title>VirtualTimer.cpp&#45;&gt;VirtualTimer_pal.cpp</title>
<path fill="none" stroke="black" d="M372.951,-35.9354C381.855,-72.8468 394.876,-160.825 398.371,-205.685"/>
<polygon fill="black" stroke="black" points="394.891,-206.098 399.034,-215.849 401.876,-205.643 394.891,-206.098"/>
</g>
<!-- VirtualTimer.cpp&#45;&gt;netmf_timers.cpp -->
<g id="edge7" class="edge"><title>VirtualTimer.cpp&#45;&gt;netmf_timers.cpp</title>
<path fill="none" stroke="black" d="M361.937,-36.2855C356.408,-54.8973 346.115,-84.9362 331.641,-108 325.149,-118.344 316.499,-128.493 308.275,-137.096"/>
<polygon fill="black" stroke="black" points="305.767,-134.655 301.222,-144.225 310.743,-139.578 305.767,-134.655"/>
</g>
<!-- VirtualTimer.cpp&#45;&gt;netmf_advancedtimer.cpp -->
<g id="edge10" class="edge"><title>VirtualTimer.cpp&#45;&gt;netmf_advancedtimer.cpp</title>
<path fill="none" stroke="black" d="M338.561,-34.8991C318.135,-45.0442 290.102,-58.2756 266.126,-69.1139"/>
<polygon fill="black" stroke="black" points="264.51,-66.0028 256.82,-73.2906 267.376,-72.3891 264.51,-66.0028"/>
</g>
<!-- netmf_advancedtimer.cpp&#45;&gt;VirtualTimer.cpp -->
<g id="edge14" class="edge"><title>netmf_advancedtimer.cpp&#45;&gt;VirtualTimer.cpp</title>
<path fill="none" stroke="black" d="M246.754,-72.5881C267.775,-62.1712 296.454,-48.6596 320.54,-37.8101"/>
<polygon fill="black" stroke="black" points="322.159,-40.9201 329.86,-33.6437 319.302,-34.5296 322.159,-40.9201"/>
</g>
<!-- stm32f10x_tim.c -->
<g id="node10" class="node"><title>stm32f10x_tim.c</title>
<ellipse fill="none" stroke="black" cx="201.641" cy="-18" rx="72.5877" ry="18"/>
<text text-anchor="middle" x="201.641" y="-14.3" font-family="Times,serif" font-size="14.00">stm32f10x_tim.c</text>
</g>
<!-- netmf_advancedtimer.cpp&#45;&gt;stm32f10x_tim.c -->
<g id="edge13" class="edge"><title>netmf_advancedtimer.cpp&#45;&gt;stm32f10x_tim.c</title>
<path fill="none" stroke="black" d="M213.686,-71.6966C211.922,-63.9827 209.804,-54.7125 207.838,-46.1124"/>
<polygon fill="black" stroke="black" points="211.191,-45.073 205.55,-36.1043 204.367,-46.6328 211.191,-45.073"/>
</g>
</g>
</svg>
