<?xml version="1.0" encoding="UTF-8" standalone="no"?>
<!DOCTYPE svg PUBLIC "-//W3C//DTD SVG 1.1//EN"
 "http://www.w3.org/Graphics/SVG/1.1/DTD/svg11.dtd">
<!-- Generated by graphviz version 2.38.0 (20140413.2041)
 -->
<!-- Title: Events_WaitForEvents Pages: 1 -->
<svg width="4351pt" height="672pt"
 viewBox="0.00 0.00 4351.24 672.00" xmlns="http://www.w3.org/2000/svg" xmlns:xlink="http://www.w3.org/1999/xlink">
<g id="graph0" class="graph" transform="scale(1 1) rotate(0) translate(4 668)">
<title>Events_WaitForEvents</title>
<polygon fill="white" stroke="none" points="-4,4 -4,-668 4347.24,-668 4347.24,4 -4,4"/>
<g id="clust1" class="cluster"><title>cluster_events</title>
<polygon fill="none" stroke="black" stroke-dasharray="5,2" points="2752,-581 2752,-656 2958,-656 2958,-581 2752,-581"/>
<text text-anchor="middle" x="2855" y="-640.8" font-family="Times,serif" font-size="14.00">events.cpp</text>
</g>
<g id="clust2" class="cluster"><title>cluster_netmfadvancedtimer</title>
<polygon fill="none" stroke="black" stroke-dasharray="5,2" points="2749,-16 2749,-174 3398,-174 3398,-16 2749,-16"/>
<text text-anchor="middle" x="3073.5" y="-158.8" font-family="Times,serif" font-size="14.00">netmf_advancedtimer.cpp</text>
</g>
<g id="clust3" class="cluster"><title>cluster_netmftimers</title>
<polygon fill="none" stroke="black" stroke-dasharray="5,2" points="1867,-182 1867,-257 2811,-257 2811,-182 1867,-182"/>
<text text-anchor="middle" x="2339" y="-241.8" font-family="Times,serif" font-size="14.00">netmf_timers.cpp</text>
</g>
<g id="clust4" class="cluster"><title>cluster_VirtualTimerpal</title>
<polygon fill="none" stroke="black" stroke-dasharray="5,2" points="2819,-182 2819,-332 3909,-332 3909,-182 2819,-182"/>
<text text-anchor="middle" x="3364" y="-316.8" font-family="Times,serif" font-size="14.00">VirtualTimer_pal.cpp</text>
</g>
<g id="clust5" class="cluster"><title>cluster_eMoteTime</title>
<polygon fill="none" stroke="black" stroke-dasharray="5,2" points="3040,-340 3040,-415 3462,-415 3462,-340 3040,-340"/>
<text text-anchor="middle" x="3251" y="-399.8" font-family="Times,serif" font-size="14.00">eMote_Time.cpp</text>
</g>
<g id="clust6" class="cluster"><title>cluster_eMoteTimefunctions</title>
<polygon fill="none" stroke="black" stroke-dasharray="5,2" points="2804,-340 2804,-490 3032,-490 3032,-340 2804,-340"/>
<text text-anchor="middle" x="2918" y="-474.8" font-family="Times,serif" font-size="14.00">eMote_Time_functions.cpp</text>
</g>
<g id="clust7" class="cluster"><title>cluster_stm32f10xtim</title>
<polygon fill="none" stroke="black" stroke-dasharray="5,2" points="1843,-16 1843,-91 2741,-91 2741,-16 1843,-16"/>
<text text-anchor="middle" x="2292" y="-75.8" font-family="Times,serif" font-size="14.00">stm32f10x_tim.c</text>
</g>
<g id="clust8" class="cluster"><title>cluster_VirtualTimer</title>
<polygon fill="none" stroke="black" stroke-dasharray="5,2" points="8,-8 8,-332 1835,-332 1835,-8 8,-8"/>
<text text-anchor="middle" x="921.5" y="-316.8" font-family="Times,serif" font-size="14.00">VirtualTimer.cpp</text>
</g>
<g id="clust9" class="cluster"><title>cluster_VirtualTimerMapper</title>
<polygon fill="none" stroke="black" stroke-dasharray="5,2" points="398,-99 398,-257 1827,-257 1827,-99 398,-99"/>
<text text-anchor="middle" x="1112.5" y="-241.8" font-family="Times,serif" font-size="14.00">template VirtualTimerMapper</text>
</g>
<g id="clust10" class="cluster"><title>cluster_VirtualTimerInfo</title>
<polygon fill="none" stroke="black" stroke-dasharray="5,2" points="16,-16 16,-91 1188,-91 1188,-16 16,-16"/>
<text text-anchor="middle" x="602" y="-75.8" font-family="Times,serif" font-size="14.00">class VirtualTimerInfo</text>
</g>
<g id="clust11" class="cluster"><title>cluster_Completions</title>
<polygon fill="none" stroke="black" stroke-dasharray="5,2" points="2780,-498 2780,-573 3468,-573 3468,-498 2780,-498"/>
<text text-anchor="middle" x="3124" y="-557.8" font-family="Times,serif" font-size="14.00">Completions.cpp</text>
</g>
<g id="clust12" class="cluster"><title>cluster_AsyncProcCalls_decl</title>
<polygon fill="none" stroke="black" stroke-dasharray="5,2" points="3949,-182 3949,-257 4201,-257 4201,-182 3949,-182"/>
<text text-anchor="middle" x="4075" y="-241.8" font-family="Times,serif" font-size="14.00">AsyncProcCalls_decl.h</text>
</g>
<!-- Events_WaitForEvents -->
<g id="node1" class="node"><title>Events_WaitForEvents</title>
<ellipse fill="none" stroke="black" cx="2855" cy="-607" rx="94.7833" ry="18"/>
<text text-anchor="middle" x="2855" y="-603.3" font-family="Times,serif" font-size="14.00">Events_WaitForEvents</text>
</g>
<!-- HAL_Time_CurrentTicks -->
<g id="node24" class="node"><title>HAL_Time_CurrentTicks</title>
<ellipse fill="none" stroke="black" cx="2918" cy="-366" rx="105.881" ry="18"/>
<text text-anchor="middle" x="2918" y="-362.3" font-family="Times,serif" font-size="14.00">HAL_Time_CurrentTicks</text>
</g>
<!-- Events_WaitForEvents&#45;&gt;HAL_Time_CurrentTicks -->
<g id="edge6" class="edge"><title>Events_WaitForEvents&#45;&gt;HAL_Time_CurrentTicks</title>
<path fill="none" stroke="black" d="M2798.83,-592.359C2789.8,-587.684 2781.6,-581.412 2776,-573 2757.52,-545.257 2769.14,-530.62 2776,-498 2783.49,-462.362 2784.03,-449.513 2809,-423 2823.79,-407.293 2843.97,-395.243 2862.94,-386.417"/>
<polygon fill="black" stroke="black" points="2864.41,-389.595 2872.13,-382.342 2861.57,-383.196 2864.41,-389.595"/>
</g>
<!-- HAL_COMPLETION::WaitForInterrupts -->
<g id="node46" class="node"><title>HAL_COMPLETION::WaitForInterrupts</title>
<ellipse fill="none" stroke="black" cx="2951" cy="-524" rx="163.271" ry="18"/>
<text text-anchor="middle" x="2951" y="-520.3" font-family="Times,serif" font-size="14.00">HAL_COMPLETION::WaitForInterrupts</text>
</g>
<!-- Events_WaitForEvents&#45;&gt;HAL_COMPLETION::WaitForInterrupts -->
<g id="edge1" class="edge"><title>Events_WaitForEvents&#45;&gt;HAL_COMPLETION::WaitForInterrupts</title>
<path fill="none" stroke="black" d="M2874.89,-589.217C2888.83,-577.458 2907.65,-561.58 2923.08,-548.555"/>
<polygon fill="black" stroke="black" points="2925.42,-551.164 2930.8,-542.04 2920.9,-545.814 2925.42,-551.164"/>
</g>
<!-- GetCounter -->
<g id="node2" class="node"><title>GetCounter</title>
<ellipse fill="none" stroke="black" cx="2916" cy="-42" rx="53.0913" ry="18"/>
<text text-anchor="middle" x="2916" y="-38.3" font-family="Times,serif" font-size="14.00">GetCounter</text>
</g>
<!-- Get64Counter -->
<g id="node3" class="node"><title>Get64Counter</title>
<ellipse fill="none" stroke="black" cx="3069" cy="-125" rx="62.2891" ry="18"/>
<text text-anchor="middle" x="3069" y="-121.3" font-family="Times,serif" font-size="14.00">Get64Counter</text>
</g>
<!-- Get64Counter&#45;&gt;GetCounter -->
<g id="edge58" class="edge"><title>Get64Counter&#45;&gt;GetCounter</title>
<path fill="none" stroke="black" d="M3030.99,-110.661C3008.68,-102.728 2983.93,-93.699 2979,-91 2966.03,-83.8918 2952.83,-74.2813 2941.89,-65.5269"/>
<polygon fill="black" stroke="black" points="2943.96,-62.6941 2934.01,-59.0548 2939.52,-68.1048 2943.96,-62.6941"/>
</g>
<!-- DidTimerOverflow -->
<g id="node6" class="node"><title>DidTimerOverflow</title>
<ellipse fill="none" stroke="black" cx="3069" cy="-42" rx="81.4863" ry="18"/>
<text text-anchor="middle" x="3069" y="-38.3" font-family="Times,serif" font-size="14.00">DidTimerOverflow</text>
</g>
<!-- Get64Counter&#45;&gt;DidTimerOverflow -->
<g id="edge59" class="edge"><title>Get64Counter&#45;&gt;DidTimerOverflow</title>
<path fill="none" stroke="black" d="M3069,-106.822C3069,-96.1903 3069,-82.306 3069,-70.2035"/>
<polygon fill="black" stroke="black" points="3072.5,-70.1532 3069,-60.1533 3065.5,-70.1533 3072.5,-70.1532"/>
</g>
<!-- ClearTimerOverflow -->
<g id="node7" class="node"><title>ClearTimerOverflow</title>
<ellipse fill="none" stroke="black" cx="3255" cy="-42" rx="87.1846" ry="18"/>
<text text-anchor="middle" x="3255" y="-38.3" font-family="Times,serif" font-size="14.00">ClearTimerOverflow</text>
</g>
<!-- Get64Counter&#45;&gt;ClearTimerOverflow -->
<g id="edge60" class="edge"><title>Get64Counter&#45;&gt;ClearTimerOverflow</title>
<path fill="none" stroke="black" d="M3107.92,-110.807C3123.9,-105.11 3142.5,-98.124 3159,-91 3178.05,-82.7742 3198.7,-72.6205 3215.94,-63.7735"/>
<polygon fill="black" stroke="black" points="3217.87,-66.7175 3225.14,-59.0134 3214.65,-60.5005 3217.87,-66.7175"/>
</g>
<!-- ISR_TIM1 -->
<g id="node4" class="node"><title>ISR_TIM1</title>
<ellipse fill="none" stroke="black" cx="3339" cy="-125" rx="50.8918" ry="18"/>
<text text-anchor="middle" x="3339" y="-121.3" font-family="Times,serif" font-size="14.00">ISR_TIM1</text>
</g>
<!-- TIM_GetITStatus -->
<g id="node26" class="node"><title>TIM_GetITStatus</title>
<ellipse fill="none" stroke="black" cx="2437" cy="-42" rx="76.0865" ry="18"/>
<text text-anchor="middle" x="2437" y="-38.3" font-family="Times,serif" font-size="14.00">TIM_GetITStatus</text>
</g>
<!-- ISR_TIM1&#45;&gt;TIM_GetITStatus -->
<g id="edge36" class="edge"><title>ISR_TIM1&#45;&gt;TIM_GetITStatus</title>
<path fill="none" stroke="black" d="M3311.33,-109.862C3301.4,-105.497 3289.94,-101.249 3279,-99 3237.8,-90.534 2562.62,-101.906 2522,-91 2502.57,-85.7833 2482.88,-75.0843 2467.36,-65.1086"/>
<polygon fill="black" stroke="black" points="2468.99,-61.9927 2458.73,-59.3656 2465.11,-67.82 2468.99,-61.9927"/>
</g>
<!-- TIM_ITConfig -->
<g id="node27" class="node"><title>TIM_ITConfig</title>
<ellipse fill="none" stroke="black" cx="2277" cy="-42" rx="65.7887" ry="18"/>
<text text-anchor="middle" x="2277" y="-38.3" font-family="Times,serif" font-size="14.00">TIM_ITConfig</text>
</g>
<!-- ISR_TIM1&#45;&gt;TIM_ITConfig -->
<g id="edge37" class="edge"><title>ISR_TIM1&#45;&gt;TIM_ITConfig</title>
<path fill="none" stroke="black" d="M3311.33,-109.85C3301.4,-105.484 3289.95,-101.238 3279,-99 3228.54,-88.6818 2401.37,-105.676 2352,-91 2334.74,-85.8685 2317.66,-75.4688 2304.17,-65.6577"/>
<polygon fill="black" stroke="black" points="2305.94,-62.6081 2295.85,-59.3567 2301.71,-68.1866 2305.94,-62.6081"/>
</g>
<!-- TIM_ClearITPendingBit -->
<g id="node28" class="node"><title>TIM_ClearITPendingBit</title>
<ellipse fill="none" stroke="black" cx="2632" cy="-42" rx="101.282" ry="18"/>
<text text-anchor="middle" x="2632" y="-38.3" font-family="Times,serif" font-size="14.00">TIM_ClearITPendingBit</text>
</g>
<!-- ISR_TIM1&#45;&gt;TIM_ClearITPendingBit -->
<g id="edge38" class="edge"><title>ISR_TIM1&#45;&gt;TIM_ClearITPendingBit</title>
<path fill="none" stroke="black" d="M3311.32,-109.889C3301.39,-105.527 3289.94,-101.273 3279,-99 3220.9,-86.927 2803.06,-103.273 2745,-91 2719.2,-85.5469 2691.96,-74.1571 2670.68,-63.8407"/>
<polygon fill="black" stroke="black" points="2672.16,-60.6699 2661.65,-59.3541 2669.05,-66.9386 2672.16,-60.6699"/>
</g>
<!-- HAL_COMPLETION::DequeueAndExec -->
<g id="node47" class="node"><title>HAL_COMPLETION::DequeueAndExec</title>
<ellipse fill="none" stroke="black" cx="3296" cy="-524" rx="163.571" ry="18"/>
<text text-anchor="middle" x="3296" y="-520.3" font-family="Times,serif" font-size="14.00">HAL_COMPLETION::DequeueAndExec</text>
</g>
<!-- ISR_TIM1&#45;&gt;HAL_COMPLETION::DequeueAndExec -->
<g id="edge39" class="edge"><title>ISR_TIM1&#45;&gt;HAL_COMPLETION::DequeueAndExec</title>
<path fill="none" stroke="black" d="M3389.41,-127.452C3522.4,-131.762 3875.21,-146.46 3913,-182 3945.79,-212.835 3929,-236.99 3929,-282 3929,-367 3929,-367 3929,-367 3929,-464.802 3640.52,-501.65 3453.06,-515.27"/>
<polygon fill="black" stroke="black" points="3452.54,-511.798 3442.81,-515.999 3453.04,-518.78 3452.54,-511.798"/>
</g>
<!-- ISR_TIM2 -->
<g id="node5" class="node"><title>ISR_TIM2</title>
<ellipse fill="none" stroke="black" cx="2938" cy="-125" rx="50.8918" ry="18"/>
<text text-anchor="middle" x="2938" y="-121.3" font-family="Times,serif" font-size="14.00">ISR_TIM2</text>
</g>
<!-- ISR_TIM2&#45;&gt;TIM_GetITStatus -->
<g id="edge30" class="edge"><title>ISR_TIM2&#45;&gt;TIM_GetITStatus</title>
<path fill="none" stroke="black" d="M2910.01,-109.803C2900.15,-105.491 2888.82,-101.291 2878,-99 2800.58,-82.6104 2598.3,-111.974 2522,-91 2502.6,-85.6678 2482.92,-74.9604 2467.38,-65.009"/>
<polygon fill="black" stroke="black" points="2469.02,-61.8935 2458.75,-59.2834 2465.15,-67.7272 2469.02,-61.8935"/>
</g>
<!-- ISR_TIM2&#45;&gt;TIM_ITConfig -->
<g id="edge31" class="edge"><title>ISR_TIM2&#45;&gt;TIM_ITConfig</title>
<path fill="none" stroke="black" d="M2910.32,-109.891C2900.39,-105.528 2888.94,-101.274 2878,-99 2820.77,-87.1013 2407.97,-107.841 2352,-91 2334.76,-85.8117 2317.68,-75.407 2304.18,-65.6072"/>
<polygon fill="black" stroke="black" points="2305.95,-62.558 2295.87,-59.3155 2301.73,-68.1403 2305.95,-62.558"/>
</g>
<!-- ISR_TIM2&#45;&gt;TIM_ClearITPendingBit -->
<g id="edge32" class="edge"><title>ISR_TIM2&#45;&gt;TIM_ClearITPendingBit</title>
<path fill="none" stroke="black" d="M2909.66,-109.904C2899.86,-105.655 2888.66,-101.468 2878,-99 2820.31,-85.6476 2802.65,-104.551 2745,-91 2719.52,-85.0092 2692.47,-73.7178 2671.23,-63.5911"/>
<polygon fill="black" stroke="black" points="2672.73,-60.4281 2662.21,-59.1928 2669.67,-66.7205 2672.73,-60.4281"/>
</g>
<!-- VirtualTimerCallback -->
<g id="node31" class="node"><title>VirtualTimerCallback</title>
<ellipse fill="none" stroke="black" cx="137" cy="-283" rx="90.9839" ry="18"/>
<text text-anchor="middle" x="137" y="-279.3" font-family="Times,serif" font-size="14.00">VirtualTimerCallback</text>
</g>
<!-- ISR_TIM2&#45;&gt;VirtualTimerCallback -->
<g id="edge33" class="edge"><title>ISR_TIM2&#45;&gt;VirtualTimerCallback</title>
<path fill="none" stroke="black" d="M2923.52,-142.306C2912.36,-153.584 2895.85,-167.659 2878,-174 2851.43,-183.438 1886.46,-166.367 1863,-182 1832.84,-202.094 1861.09,-236.803 1831,-257 1797.8,-279.286 597.851,-281.749 237.997,-281.986"/>
<polygon fill="black" stroke="black" points="237.851,-278.486 227.853,-281.992 237.856,-285.486 237.851,-278.486"/>
</g>
<!-- SetCompare -->
<g id="node8" class="node"><title>SetCompare</title>
<ellipse fill="none" stroke="black" cx="2813" cy="-125" rx="55.7903" ry="18"/>
<text text-anchor="middle" x="2813" y="-121.3" font-family="Times,serif" font-size="14.00">SetCompare</text>
</g>
<!-- SetCompare&#45;&gt;TIM_ITConfig -->
<g id="edge53" class="edge"><title>SetCompare&#45;&gt;TIM_ITConfig</title>
<path fill="none" stroke="black" d="M2757.16,-123.431C2651.36,-121.792 2425.68,-115.449 2352,-91 2335.15,-85.4087 2318.32,-75.174 2304.89,-65.5873"/>
<polygon fill="black" stroke="black" points="2306.71,-62.5768 2296.59,-59.4364 2302.54,-68.2015 2306.71,-62.5768"/>
</g>
<!-- TIM_SetCompare1 -->
<g id="node29" class="node"><title>TIM_SetCompare1</title>
<ellipse fill="none" stroke="black" cx="1932" cy="-42" rx="81.4863" ry="18"/>
<text text-anchor="middle" x="1932" y="-38.3" font-family="Times,serif" font-size="14.00">TIM_SetCompare1</text>
</g>
<!-- SetCompare&#45;&gt;TIM_SetCompare1 -->
<g id="edge52" class="edge"><title>SetCompare&#45;&gt;TIM_SetCompare1</title>
<path fill="none" stroke="black" d="M2757.16,-123.107C2588.62,-120.21 2092.29,-110.137 2022,-91 2001.67,-85.4655 1980.8,-74.7086 1964.28,-64.7785"/>
<polygon fill="black" stroke="black" points="1965.93,-61.6801 1955.58,-59.3853 1962.24,-67.6294 1965.93,-61.6801"/>
</g>
<!-- TIM_SetCompare2 -->
<g id="node30" class="node"><title>TIM_SetCompare2</title>
<ellipse fill="none" stroke="black" cx="2112" cy="-42" rx="81.4863" ry="18"/>
<text text-anchor="middle" x="2112" y="-38.3" font-family="Times,serif" font-size="14.00">TIM_SetCompare2</text>
</g>
<!-- SetCompare&#45;&gt;TIM_SetCompare2 -->
<g id="edge54" class="edge"><title>SetCompare&#45;&gt;TIM_SetCompare2</title>
<path fill="none" stroke="black" d="M2756.71,-124.062C2626.02,-123.705 2305.35,-119.821 2202,-91 2181.71,-85.3409 2160.84,-74.5753 2144.31,-64.6715"/>
<polygon fill="black" stroke="black" points="2145.96,-61.5729 2135.61,-59.2959 2142.28,-67.5286 2145.96,-61.5729"/>
</g>
<!-- GetMaxTicks -->
<g id="node9" class="node"><title>GetMaxTicks</title>
<ellipse fill="none" stroke="black" cx="3210" cy="-125" rx="60.3893" ry="18"/>
<text text-anchor="middle" x="3210" y="-121.3" font-family="Times,serif" font-size="14.00">GetMaxTicks</text>
</g>
<!-- CPU_Timer_CurrentTicks -->
<g id="node10" class="node"><title>CPU_Timer_CurrentTicks</title>
<ellipse fill="none" stroke="black" cx="2457" cy="-208" rx="107.781" ry="18"/>
<text text-anchor="middle" x="2457" y="-204.3" font-family="Times,serif" font-size="14.00">CPU_Timer_CurrentTicks</text>
</g>
<!-- CPU_Timer_CurrentTicks&#45;&gt;Get64Counter -->
<g id="edge57" class="edge"><title>CPU_Timer_CurrentTicks&#45;&gt;Get64Counter</title>
<path fill="none" stroke="black" d="M2513.47,-192.65C2532.56,-188.411 2554.09,-184.294 2574,-182 2620.81,-176.608 2953.08,-188.225 2998,-174 3014.52,-168.768 3030.71,-158.359 3043.44,-148.568"/>
<polygon fill="black" stroke="black" points="3045.67,-151.269 3051.28,-142.284 3041.29,-145.808 3045.67,-151.269"/>
</g>
<!-- CPU_Timer_SetCompare -->
<g id="node11" class="node"><title>CPU_Timer_SetCompare</title>
<ellipse fill="none" stroke="black" cx="1980" cy="-208" rx="104.782" ry="18"/>
<text text-anchor="middle" x="1980" y="-204.3" font-family="Times,serif" font-size="14.00">CPU_Timer_SetCompare</text>
</g>
<!-- CPU_Timer_SetCompare&#45;&gt;SetCompare -->
<g id="edge50" class="edge"><title>CPU_Timer_SetCompare&#45;&gt;SetCompare</title>
<path fill="none" stroke="black" d="M2037.12,-192.853C2055.22,-188.809 2075.36,-184.756 2094,-182 2333.13,-146.639 2620.53,-132.763 2747.37,-128.078"/>
<polygon fill="black" stroke="black" points="2747.82,-131.564 2757.69,-127.704 2747.57,-124.569 2747.82,-131.564"/>
</g>
<!-- CPU_TicksToMicroseconds -->
<g id="node12" class="node"><title>CPU_TicksToMicroseconds</title>
<ellipse fill="none" stroke="black" cx="2217" cy="-208" rx="114.28" ry="18"/>
<text text-anchor="middle" x="2217" y="-204.3" font-family="Times,serif" font-size="14.00">CPU_TicksToMicroseconds</text>
</g>
<!-- CPU_Timer_GetMaxTicks -->
<g id="node13" class="node"><title>CPU_Timer_GetMaxTicks</title>
<ellipse fill="none" stroke="black" cx="2693" cy="-208" rx="109.681" ry="18"/>
<text text-anchor="middle" x="2693" y="-204.3" font-family="Times,serif" font-size="14.00">CPU_Timer_GetMaxTicks</text>
</g>
<!-- CPU_Timer_GetMaxTicks&#45;&gt;GetMaxTicks -->
<g id="edge51" class="edge"><title>CPU_Timer_GetMaxTicks&#45;&gt;GetMaxTicks</title>
<path fill="none" stroke="black" d="M2751.92,-192.727C2771.83,-188.493 2794.27,-184.36 2815,-182 2850.89,-177.914 3105.63,-185.117 3140,-174 3156.18,-168.768 3171.99,-158.502 3184.48,-148.803"/>
<polygon fill="black" stroke="black" points="3187,-151.265 3192.56,-142.247 3182.59,-145.829 3187,-151.265"/>
</g>
<!-- VirtTimer_GetTicks -->
<g id="node14" class="node"><title>VirtTimer_GetTicks</title>
<ellipse fill="none" stroke="black" cx="3593" cy="-283" rx="85.5853" ry="18"/>
<text text-anchor="middle" x="3593" y="-279.3" font-family="Times,serif" font-size="14.00">VirtTimer_GetTicks</text>
</g>
<!-- VirtTimer_GetTicks&#45;&gt;CPU_Timer_CurrentTicks -->
<g id="edge63" class="edge"><title>VirtTimer_GetTicks&#45;&gt;CPU_Timer_CurrentTicks</title>
<path fill="none" stroke="black" d="M3534.17,-269.883C3522.25,-267.877 3509.76,-266.095 3498,-265 3446.89,-260.24 2624.32,-267.148 2574,-257 2547.26,-251.607 2518.91,-240.142 2496.82,-229.77"/>
<polygon fill="black" stroke="black" points="2498.29,-226.591 2487.76,-225.412 2495.25,-232.9 2498.29,-226.591"/>
</g>
<!-- VirtTimer_Stop -->
<g id="node15" class="node"><title>VirtTimer_Stop</title>
<ellipse fill="none" stroke="black" cx="2896" cy="-283" rx="68.7879" ry="18"/>
<text text-anchor="middle" x="2896" y="-279.3" font-family="Times,serif" font-size="14.00">VirtTimer_Stop</text>
</g>
<!-- HardwareVirtTimerMapper3 -->
<g id="node20" class="node"><title>HardwareVirtTimerMapper3</title>
<ellipse fill="none" stroke="black" cx="3242" cy="-208" rx="116.18" ry="18"/>
<text text-anchor="middle" x="3242" y="-204.3" font-family="Times,serif" font-size="14.00">HardwareVirtTimerMapper3</text>
</g>
<!-- VirtTimer_Stop&#45;&gt;HardwareVirtTimerMapper3 -->
<g id="edge17" class="edge"><title>VirtTimer_Stop&#45;&gt;HardwareVirtTimerMapper3</title>
<path fill="none" stroke="black" d="M2947.17,-270.781C2956.11,-268.84 2965.33,-266.852 2974,-265 3038.41,-251.251 3111.62,-235.979 3165.22,-224.861"/>
<polygon fill="black" stroke="black" points="3166.25,-228.221 3175.33,-222.764 3164.83,-221.367 3166.25,-228.221"/>
</g>
<!-- VirtualTimerMapper::StopTimer -->
<g id="node34" class="node"><title>VirtualTimerMapper::StopTimer</title>
<ellipse fill="none" stroke="black" cx="835" cy="-208" rx="131.077" ry="18"/>
<text text-anchor="middle" x="835" y="-204.3" font-family="Times,serif" font-size="14.00">VirtualTimerMapper::StopTimer</text>
</g>
<!-- VirtTimer_Stop&#45;&gt;VirtualTimerMapper::StopTimer -->
<g id="edge18" class="edge"><title>VirtTimer_Stop&#45;&gt;VirtualTimerMapper::StopTimer</title>
<path fill="none" stroke="black" d="M2827.37,-280.734C2658.99,-277.664 2212,-269.726 1839,-265 1791,-264.392 1022.31,-265.111 975,-257 942.859,-251.49 908.178,-239.646 881.374,-229.103"/>
<polygon fill="black" stroke="black" points="882.459,-225.767 871.875,-225.291 879.852,-232.263 882.459,-225.767"/>
</g>
<!-- VirtTimer_SetTimer -->
<g id="node16" class="node"><title>VirtTimer_SetTimer</title>
<ellipse fill="none" stroke="black" cx="3069" cy="-283" rx="85.5853" ry="18"/>
<text text-anchor="middle" x="3069" y="-279.3" font-family="Times,serif" font-size="14.00">VirtTimer_SetTimer</text>
</g>
<!-- VirtTimer_SetTimer&#45;&gt;HardwareVirtTimerMapper3 -->
<g id="edge19" class="edge"><title>VirtTimer_SetTimer&#45;&gt;HardwareVirtTimerMapper3</title>
<path fill="none" stroke="black" d="M3105.69,-266.519C3131.62,-255.576 3166.61,-240.811 3194.65,-228.981"/>
<polygon fill="black" stroke="black" points="3196.01,-232.203 3203.87,-225.091 3193.29,-225.754 3196.01,-232.203"/>
</g>
<!-- VirtualTimerMapper::SetTimer -->
<g id="node33" class="node"><title>VirtualTimerMapper::SetTimer</title>
<ellipse fill="none" stroke="black" cx="1110" cy="-208" rx="126.178" ry="18"/>
<text text-anchor="middle" x="1110" y="-204.3" font-family="Times,serif" font-size="14.00">VirtualTimerMapper::SetTimer</text>
</g>
<!-- VirtTimer_SetTimer&#45;&gt;VirtualTimerMapper::SetTimer -->
<g id="edge20" class="edge"><title>VirtTimer_SetTimer&#45;&gt;VirtualTimerMapper::SetTimer</title>
<path fill="none" stroke="black" d="M3010.18,-269.846C2998.25,-267.842 2985.76,-266.072 2974,-265 2878.34,-256.285 1339.62,-273.546 1245,-257 1214.04,-251.586 1180.75,-239.822 1154.98,-229.296"/>
<polygon fill="black" stroke="black" points="1156.07,-225.958 1145.49,-225.339 1153.37,-232.418 1156.07,-225.958"/>
</g>
<!-- VirtTimer_Change -->
<g id="node17" class="node"><title>VirtTimer_Change</title>
<ellipse fill="none" stroke="black" cx="3409" cy="-283" rx="79.8859" ry="18"/>
<text text-anchor="middle" x="3409" y="-279.3" font-family="Times,serif" font-size="14.00">VirtTimer_Change</text>
</g>
<!-- VirtTimer_Change&#45;&gt;HardwareVirtTimerMapper3 -->
<g id="edge22" class="edge"><title>VirtTimer_Change&#45;&gt;HardwareVirtTimerMapper3</title>
<path fill="none" stroke="black" d="M3373.99,-266.697C3349.09,-255.814 3315.4,-241.083 3288.28,-229.23"/>
<polygon fill="black" stroke="black" points="3289.55,-225.967 3278.99,-225.169 3286.75,-232.381 3289.55,-225.967"/>
</g>
<!-- VirtualTimerMapper::ChangeTimer -->
<g id="node36" class="node"><title>VirtualTimerMapper::ChangeTimer</title>
<ellipse fill="none" stroke="black" cx="1677" cy="-208" rx="142.175" ry="18"/>
<text text-anchor="middle" x="1677" y="-204.3" font-family="Times,serif" font-size="14.00">VirtualTimerMapper::ChangeTimer</text>
</g>
<!-- VirtTimer_Change&#45;&gt;VirtualTimerMapper::ChangeTimer -->
<g id="edge23" class="edge"><title>VirtTimer_Change&#45;&gt;VirtualTimerMapper::ChangeTimer</title>
<path fill="none" stroke="black" d="M3354.31,-269.809C3343.33,-267.822 3331.84,-266.067 3321,-265 3159.78,-249.124 2023.66,-277.844 1863,-257 1819.47,-251.352 1771.53,-238.823 1735.22,-227.981"/>
<polygon fill="black" stroke="black" points="1735.89,-224.526 1725.31,-224.975 1733.86,-231.226 1735.89,-224.526"/>
</g>
<!-- VirtTimer_Start -->
<g id="node18" class="node"><title>VirtTimer_Start</title>
<ellipse fill="none" stroke="black" cx="3242" cy="-283" rx="69.5877" ry="18"/>
<text text-anchor="middle" x="3242" y="-279.3" font-family="Times,serif" font-size="14.00">VirtTimer_Start</text>
</g>
<!-- VirtTimer_Start&#45;&gt;HardwareVirtTimerMapper3 -->
<g id="edge24" class="edge"><title>VirtTimer_Start&#45;&gt;HardwareVirtTimerMapper3</title>
<path fill="none" stroke="black" d="M3242,-264.7C3242,-256.245 3242,-245.869 3242,-236.373"/>
<polygon fill="black" stroke="black" points="3245.5,-236.176 3242,-226.176 3238.5,-236.176 3245.5,-236.176"/>
</g>
<!-- VirtualTimerMapper::StartTimer -->
<g id="node37" class="node"><title>VirtualTimerMapper::StartTimer</title>
<ellipse fill="none" stroke="black" cx="1385" cy="-208" rx="131.077" ry="18"/>
<text text-anchor="middle" x="1385" y="-204.3" font-family="Times,serif" font-size="14.00">VirtualTimerMapper::StartTimer</text>
</g>
<!-- VirtTimer_Start&#45;&gt;VirtualTimerMapper::StartTimer -->
<g id="edge25" class="edge"><title>VirtTimer_Start&#45;&gt;VirtualTimerMapper::StartTimer</title>
<path fill="none" stroke="black" d="M3194,-269.886C3184.14,-267.865 3173.78,-266.078 3164,-265 3073.55,-255.034 1615.74,-272.082 1526,-257 1493.64,-251.561 1458.71,-239.717 1431.71,-229.157"/>
<polygon fill="black" stroke="black" points="1432.73,-225.794 1422.14,-225.338 1430.13,-232.296 1432.73,-225.794"/>
</g>
<!-- VirtTimer_GetMaxTicks -->
<g id="node19" class="node"><title>VirtTimer_GetMaxTicks</title>
<ellipse fill="none" stroke="black" cx="3799" cy="-283" rx="102.082" ry="18"/>
<text text-anchor="middle" x="3799" y="-279.3" font-family="Times,serif" font-size="14.00">VirtTimer_GetMaxTicks</text>
</g>
<!-- VirtTimer_GetMaxTicks&#45;&gt;CPU_Timer_GetMaxTicks -->
<g id="edge27" class="edge"><title>VirtTimer_GetMaxTicks&#45;&gt;CPU_Timer_GetMaxTicks</title>
<path fill="none" stroke="black" d="M3729.31,-269.772C3715.65,-267.817 3701.41,-266.083 3688,-265 3639.66,-261.097 2862.61,-266.255 2815,-257 2787.02,-251.56 2757.21,-239.954 2734.07,-229.518"/>
<polygon fill="black" stroke="black" points="2735.45,-226.3 2724.9,-225.289 2732.52,-232.657 2735.45,-226.3"/>
</g>
<!-- VirtTimer_GetMaxTicks&#45;&gt;HardwareVirtTimerMapper3 -->
<g id="edge26" class="edge"><title>VirtTimer_GetMaxTicks&#45;&gt;HardwareVirtTimerMapper3</title>
<path fill="none" stroke="black" d="M3725.6,-270.472C3713.06,-268.585 3700.16,-266.695 3688,-265 3569.17,-248.444 3432.22,-231.577 3341.76,-220.743"/>
<polygon fill="black" stroke="black" points="3342.14,-217.263 3331.79,-219.551 3341.3,-224.213 3342.14,-217.263"/>
</g>
<!-- CurrentTicks -->
<g id="node21" class="node"><title>CurrentTicks</title>
<ellipse fill="none" stroke="black" cx="3396" cy="-366" rx="58.4896" ry="18"/>
<text text-anchor="middle" x="3396" y="-362.3" font-family="Times,serif" font-size="14.00">CurrentTicks</text>
</g>
<!-- CurrentTicks&#45;&gt;VirtTimer_GetTicks -->
<g id="edge62" class="edge"><title>CurrentTicks&#45;&gt;VirtTimer_GetTicks</title>
<path fill="none" stroke="black" d="M3437.72,-353.105C3456.4,-347.371 3478.55,-340.003 3498,-332 3517.18,-324.109 3537.8,-313.913 3554.91,-304.948"/>
<polygon fill="black" stroke="black" points="3556.83,-307.893 3564.02,-300.117 3553.55,-301.708 3556.83,-307.893"/>
</g>
<!-- StopTimer -->
<g id="node22" class="node"><title>StopTimer</title>
<ellipse fill="none" stroke="black" cx="3097" cy="-366" rx="49.2915" ry="18"/>
<text text-anchor="middle" x="3097" y="-362.3" font-family="Times,serif" font-size="14.00">StopTimer</text>
</g>
<!-- StopTimer&#45;&gt;VirtTimer_Stop -->
<g id="edge4" class="edge"><title>StopTimer&#45;&gt;VirtTimer_Stop</title>
<path fill="none" stroke="black" d="M3068.06,-351.334C3058.09,-347.116 3046.73,-342.839 3036,-340 3009.14,-332.894 3000.19,-341.265 2974,-332 2956.74,-325.896 2939.24,-315.577 2925.19,-306.067"/>
<polygon fill="black" stroke="black" points="2927.13,-303.152 2916.93,-300.295 2923.12,-308.891 2927.13,-303.152"/>
</g>
<!-- SetCompareValue -->
<g id="node23" class="node"><title>SetCompareValue</title>
<ellipse fill="none" stroke="black" cx="3242" cy="-366" rx="77.1866" ry="18"/>
<text text-anchor="middle" x="3242" y="-362.3" font-family="Times,serif" font-size="14.00">SetCompareValue</text>
</g>
<!-- SetCompareValue&#45;&gt;CPU_TicksToMicroseconds -->
<g id="edge9" class="edge"><title>SetCompareValue&#45;&gt;CPU_TicksToMicroseconds</title>
<path fill="none" stroke="black" d="M3200.45,-350.713C3186.21,-346.45 3170.07,-342.303 3155,-340 3080.29,-328.581 2890.27,-338.797 2815,-332 2602.14,-312.777 2546.3,-312.84 2340,-257 2313.48,-249.821 2284.82,-238.84 2261.85,-229.192"/>
<polygon fill="black" stroke="black" points="2262.95,-225.855 2252.37,-225.154 2260.2,-232.295 2262.95,-225.855"/>
</g>
<!-- SetCompareValue&#45;&gt;VirtTimer_SetTimer -->
<g id="edge10" class="edge"><title>SetCompareValue&#45;&gt;VirtTimer_SetTimer</title>
<path fill="none" stroke="black" d="M3204.77,-350.134C3191.49,-344.651 3176.49,-338.249 3163,-332 3144.62,-323.485 3124.59,-313.375 3107.76,-304.634"/>
<polygon fill="black" stroke="black" points="3109.25,-301.466 3098.77,-299.938 3106.01,-307.67 3109.25,-301.466"/>
</g>
<!-- SetCompareValue&#45;&gt;VirtTimer_Change -->
<g id="edge11" class="edge"><title>SetCompareValue&#45;&gt;VirtTimer_Change</title>
<path fill="none" stroke="black" d="M3279.73,-350.173C3292.91,-344.746 3307.73,-338.368 3321,-332 3338.18,-323.753 3356.77,-313.779 3372.41,-305.064"/>
<polygon fill="black" stroke="black" points="3374.24,-308.049 3381.25,-300.1 3370.81,-301.945 3374.24,-308.049"/>
</g>
<!-- SetCompareValue&#45;&gt;VirtTimer_Start -->
<g id="edge12" class="edge"><title>SetCompareValue&#45;&gt;VirtTimer_Start</title>
<path fill="none" stroke="black" d="M3242,-347.822C3242,-337.19 3242,-323.306 3242,-311.204"/>
<polygon fill="black" stroke="black" points="3245.5,-311.153 3242,-301.153 3238.5,-311.153 3245.5,-311.153"/>
</g>
<!-- HAL_Time_CurrentTicks&#45;&gt;CurrentTicks -->
<g id="edge61" class="edge"><title>HAL_Time_CurrentTicks&#45;&gt;CurrentTicks</title>
<path fill="none" stroke="black" d="M2949.51,-383.283C2974.55,-395.986 3010.91,-412.173 3045,-419 3059.93,-421.989 3304.11,-422.16 3319,-419 3338.77,-414.804 3357.53,-402.145 3371.58,-390.251"/>
<polygon fill="black" stroke="black" points="3374.14,-392.665 3379.29,-383.406 3369.49,-387.433 3374.14,-392.665"/>
</g>
<!-- HAL_Time_SetCompare -->
<g id="node25" class="node"><title>HAL_Time_SetCompare</title>
<ellipse fill="none" stroke="black" cx="2921" cy="-441" rx="102.882" ry="18"/>
<text text-anchor="middle" x="2921" y="-437.3" font-family="Times,serif" font-size="14.00">HAL_Time_SetCompare</text>
</g>
<!-- HAL_Time_SetCompare&#45;&gt;StopTimer -->
<g id="edge3" class="edge"><title>HAL_Time_SetCompare&#45;&gt;StopTimer</title>
<path fill="none" stroke="black" d="M2996.55,-428.705C3010.04,-425.262 3023.71,-420.792 3036,-415 3049.41,-408.683 3062.55,-398.936 3073.18,-389.871"/>
<polygon fill="black" stroke="black" points="3075.62,-392.389 3080.79,-383.14 3070.98,-387.147 3075.62,-392.389"/>
</g>
<!-- HAL_Time_SetCompare&#45;&gt;SetCompareValue -->
<g id="edge8" class="edge"><title>HAL_Time_SetCompare&#45;&gt;SetCompareValue</title>
<path fill="none" stroke="black" d="M3022.42,-437.936C3064.25,-434.845 3112.72,-428.324 3155,-415 3174.12,-408.975 3193.8,-398.531 3209.6,-388.92"/>
<polygon fill="black" stroke="black" points="3211.81,-391.671 3218.42,-383.398 3208.09,-385.738 3211.81,-391.671"/>
</g>
<!-- HAL_Time_SetCompare&#45;&gt;HAL_Time_CurrentTicks -->
<g id="edge7" class="edge"><title>HAL_Time_SetCompare&#45;&gt;HAL_Time_CurrentTicks</title>
<path fill="none" stroke="black" d="M2920.29,-422.7C2919.94,-414.245 2919.52,-403.869 2919.12,-394.373"/>
<polygon fill="black" stroke="black" points="2922.61,-394.024 2918.71,-384.176 2915.62,-394.311 2922.61,-394.024"/>
</g>
<!-- VirtualTimerCallback&#45;&gt;CPU_Timer_CurrentTicks -->
<g id="edge56" class="edge"><title>VirtualTimerCallback&#45;&gt;CPU_Timer_CurrentTicks</title>
<path fill="none" stroke="black" d="M228.085,-281.923C630.677,-281.462 2235.16,-278.288 2340,-257 2366.73,-251.571 2395.08,-240.105 2417.17,-229.741"/>
<polygon fill="black" stroke="black" points="2418.74,-232.872 2426.24,-225.387 2415.71,-226.562 2418.74,-232.872"/>
</g>
<!-- VirtualTimerCallback&#45;&gt;CPU_Timer_SetCompare -->
<g id="edge48" class="edge"><title>VirtualTimerCallback&#45;&gt;CPU_Timer_SetCompare</title>
<path fill="none" stroke="black" d="M227.823,-281.607C571.983,-280 1780.54,-273.223 1861,-257 1888.13,-251.529 1916.96,-240.062 1939.45,-229.708"/>
<polygon fill="black" stroke="black" points="1941.12,-232.789 1948.67,-225.359 1938.13,-226.457 1941.12,-232.789"/>
</g>
<!-- VirtualTimerCallback&#45;&gt;VirtTimer_GetMaxTicks -->
<g id="edge42" class="edge"><title>VirtualTimerCallback&#45;&gt;VirtTimer_GetMaxTicks</title>
<path fill="none" stroke="black" d="M226.971,-285.741C540.672,-295.145 1615.33,-326.059 2503,-336 2535.66,-336.366 3647.04,-342.744 3679,-336 3707.4,-330.008 3737.26,-316.847 3760.09,-305.14"/>
<polygon fill="black" stroke="black" points="3761.88,-308.154 3769.11,-300.406 3758.63,-301.957 3761.88,-308.154"/>
</g>
<!-- HardwareVirtTimerMapper2 -->
<g id="node32" class="node"><title>HardwareVirtTimerMapper2</title>
<ellipse fill="none" stroke="black" cx="272" cy="-208" rx="116.18" ry="18"/>
<text text-anchor="middle" x="272" y="-204.3" font-family="Times,serif" font-size="14.00">HardwareVirtTimerMapper2</text>
</g>
<!-- VirtualTimerCallback&#45;&gt;HardwareVirtTimerMapper2 -->
<g id="edge49" class="edge"><title>VirtualTimerCallback&#45;&gt;HardwareVirtTimerMapper2</title>
<path fill="none" stroke="black" d="M166.626,-265.98C185.963,-255.524 211.431,-241.752 232.485,-230.368"/>
<polygon fill="black" stroke="black" points="234.376,-233.324 241.507,-225.489 231.046,-227.166 234.376,-233.324"/>
</g>
<!-- set_m_last_QueueAdjustmentTime -->
<g id="node35" class="node"><title>set_m_last_QueueAdjustmentTime</title>
<ellipse fill="none" stroke="black" cx="546" cy="-208" rx="139.976" ry="18"/>
<text text-anchor="middle" x="546" y="-204.3" font-family="Times,serif" font-size="14.00">set_m_last_QueueAdjustmentTime</text>
</g>
<!-- VirtualTimerCallback&#45;&gt;set_m_last_QueueAdjustmentTime -->
<g id="edge55" class="edge"><title>VirtualTimerCallback&#45;&gt;set_m_last_QueueAdjustmentTime</title>
<path fill="none" stroke="black" d="M225.486,-278.694C277.356,-275.508 343.897,-269.257 402,-257 433.806,-250.29 468.394,-238.902 495.698,-228.902"/>
<polygon fill="black" stroke="black" points="497.256,-232.057 505.409,-225.292 494.817,-225.496 497.256,-232.057"/>
</g>
<!-- get_m_is_running -->
<g id="node39" class="node"><title>get_m_is_running</title>
<ellipse fill="none" stroke="black" cx="101" cy="-42" rx="76.8869" ry="18"/>
<text text-anchor="middle" x="101" y="-38.3" font-family="Times,serif" font-size="14.00">get_m_is_running</text>
</g>
<!-- VirtualTimerCallback&#45;&gt;get_m_is_running -->
<g id="edge40" class="edge"><title>VirtualTimerCallback&#45;&gt;get_m_is_running</title>
<path fill="none" stroke="black" d="M65.6476,-271.804C50.1703,-268.105 36.9363,-263.25 32,-257 -11.5259,-201.894 1.80317,-162.398 32,-99 38.6302,-85.08 50.5991,-73.494 62.7282,-64.541"/>
<polygon fill="black" stroke="black" points="64.8484,-67.3303 71.0872,-58.7671 60.87,-61.5708 64.8484,-67.3303"/>
</g>
<!-- get_m_timer_id -->
<g id="node40" class="node"><title>get_m_timer_id</title>
<ellipse fill="none" stroke="black" cx="1111" cy="-42" rx="68.7879" ry="18"/>
<text text-anchor="middle" x="1111" y="-38.3" font-family="Times,serif" font-size="14.00">get_m_timer_id</text>
</g>
<!-- VirtualTimerCallback&#45;&gt;get_m_timer_id -->
<g id="edge47" class="edge"><title>VirtualTimerCallback&#45;&gt;get_m_timer_id</title>
<path fill="none" stroke="black" d="M136.542,-264.875C136.223,-239.72 137.101,-194.414 147,-182 219.201,-91.4522 279.827,-118.404 394,-99 429.001,-93.0514 998.9,-100.883 1033,-91 1050.96,-85.7953 1068.88,-75.244 1083,-65.3562"/>
<polygon fill="black" stroke="black" points="1085.25,-68.0522 1091.27,-59.3392 1081.13,-62.3915 1085.25,-68.0522"/>
</g>
<!-- get_m_period -->
<g id="node41" class="node"><title>get_m_period</title>
<ellipse fill="none" stroke="black" cx="257" cy="-42" rx="61.1893" ry="18"/>
<text text-anchor="middle" x="257" y="-38.3" font-family="Times,serif" font-size="14.00">get_m_period</text>
</g>
<!-- VirtualTimerCallback&#45;&gt;get_m_period -->
<g id="edge45" class="edge"><title>VirtualTimerCallback&#45;&gt;get_m_period</title>
<path fill="none" stroke="black" d="M68.6045,-271.015C62.1762,-267.485 56.4233,-262.912 52,-257 30.965,-228.887 27.9182,-124.551 52,-99 62.3061,-88.065 172.785,-95.871 187,-91 202.97,-85.5276 218.665,-75.3404 231.133,-65.7542"/>
<polygon fill="black" stroke="black" points="233.598,-68.2637 239.213,-59.2789 229.221,-62.8014 233.598,-68.2637"/>
</g>
<!-- set_m_is_running -->
<g id="node42" class="node"><title>set_m_is_running</title>
<ellipse fill="none" stroke="black" cx="412" cy="-42" rx="76.0865" ry="18"/>
<text text-anchor="middle" x="412" y="-38.3" font-family="Times,serif" font-size="14.00">set_m_is_running</text>
</g>
<!-- VirtualTimerCallback&#45;&gt;set_m_is_running -->
<g id="edge44" class="edge"><title>VirtualTimerCallback&#45;&gt;set_m_is_running</title>
<path fill="none" stroke="black" d="M83.5967,-268.186C79.086,-265.166 75.0802,-261.485 72,-257 52.1223,-228.058 47.5651,-124.214 72,-99 81.8639,-88.8218 313.35,-94.8176 327,-91 346.237,-85.6197 365.779,-75.0185 381.266,-65.1445"/>
<polygon fill="black" stroke="black" points="383.464,-67.888 389.884,-59.4599 379.609,-62.0448 383.464,-67.888"/>
</g>
<!-- get_m_is_one_shot -->
<g id="node43" class="node"><title>get_m_is_one_shot</title>
<ellipse fill="none" stroke="black" cx="587" cy="-42" rx="81.4863" ry="18"/>
<text text-anchor="middle" x="587" y="-38.3" font-family="Times,serif" font-size="14.00">get_m_is_one_shot</text>
</g>
<!-- VirtualTimerCallback&#45;&gt;get_m_is_one_shot -->
<g id="edge43" class="edge"><title>VirtualTimerCallback&#45;&gt;get_m_is_one_shot</title>
<path fill="none" stroke="black" d="M100.045,-266.284C96.8734,-263.62 94.0849,-260.543 92,-257 74.1942,-226.739 67.4191,-124.071 92,-99 99.8775,-90.9653 486.111,-93.8367 497,-91 517.531,-85.6512 538.558,-74.7951 555.12,-64.7583"/>
<polygon fill="black" stroke="black" points="557.21,-67.5792 563.83,-59.3069 553.496,-61.6456 557.21,-67.5792"/>
</g>
<!-- get_m_callback -->
<g id="node44" class="node"><title>get_m_callback</title>
<ellipse fill="none" stroke="black" cx="754" cy="-42" rx="68.4888" ry="18"/>
<text text-anchor="middle" x="754" y="-38.3" font-family="Times,serif" font-size="14.00">get_m_callback</text>
</g>
<!-- VirtualTimerCallback&#45;&gt;get_m_callback -->
<g id="edge41" class="edge"><title>VirtualTimerCallback&#45;&gt;get_m_callback</title>
<path fill="none" stroke="black" d="M117.002,-265.293C114.978,-262.731 113.221,-259.949 112,-257 98.5636,-224.562 87.3491,-124.002 112,-99 123.02,-87.8229 661.941,-95.425 677,-91 694.773,-85.7776 712.465,-75.2249 726.4,-65.3408"/>
<polygon fill="black" stroke="black" points="728.586,-68.0776 734.559,-59.3266 724.433,-62.4431 728.586,-68.0776"/>
</g>
<!-- set_m_ticksTillExpire -->
<g id="node45" class="node"><title>set_m_ticksTillExpire</title>
<ellipse fill="none" stroke="black" cx="932" cy="-42" rx="91.784" ry="18"/>
<text text-anchor="middle" x="932" y="-38.3" font-family="Times,serif" font-size="14.00">set_m_ticksTillExpire</text>
</g>
<!-- VirtualTimerCallback&#45;&gt;set_m_ticksTillExpire -->
<g id="edge46" class="edge"><title>VirtualTimerCallback&#45;&gt;set_m_ticksTillExpire</title>
<path fill="none" stroke="black" d="M133.108,-264.853C132.648,-262.235 132.253,-259.555 132,-257 128.54,-222.06 107.315,-123.969 132,-99 145.652,-85.1911 812.083,-95.3805 831,-91 854.081,-85.6555 878.107,-74.4993 896.933,-64.2866"/>
<polygon fill="black" stroke="black" points="898.702,-67.3072 905.73,-59.3784 895.292,-61.1943 898.702,-67.3072"/>
</g>
<!-- VirtualTimerMapper::VirtTimerIndexMapper -->
<g id="node38" class="node"><title>VirtualTimerMapper::VirtTimerIndexMapper</title>
<ellipse fill="none" stroke="black" cx="1111" cy="-125" rx="178.168" ry="18"/>
<text text-anchor="middle" x="1111" y="-121.3" font-family="Times,serif" font-size="14.00">VirtualTimerMapper::VirtTimerIndexMapper</text>
</g>
<!-- VirtualTimerMapper::SetTimer&#45;&gt;VirtualTimerMapper::VirtTimerIndexMapper -->
<g id="edge13" class="edge"><title>VirtualTimerMapper::SetTimer&#45;&gt;VirtualTimerMapper::VirtTimerIndexMapper</title>
<path fill="none" stroke="black" d="M1110.21,-189.822C1110.34,-179.19 1110.51,-165.306 1110.66,-153.204"/>
<polygon fill="black" stroke="black" points="1114.16,-153.196 1110.79,-143.153 1107.16,-153.109 1114.16,-153.196"/>
</g>
<!-- VirtualTimerMapper::StopTimer&#45;&gt;VirtualTimerMapper::VirtTimerIndexMapper -->
<g id="edge16" class="edge"><title>VirtualTimerMapper::StopTimer&#45;&gt;VirtualTimerMapper::VirtTimerIndexMapper</title>
<path fill="none" stroke="black" d="M887.889,-191.478C932.992,-178.242 997.994,-159.165 1046.21,-145.014"/>
<polygon fill="black" stroke="black" points="1047.32,-148.337 1055.93,-142.163 1045.35,-141.62 1047.32,-148.337"/>
</g>
<!-- VirtualTimerMapper::ChangeTimer&#45;&gt;VirtualTimerMapper::VirtTimerIndexMapper -->
<g id="edge14" class="edge"><title>VirtualTimerMapper::ChangeTimer&#45;&gt;VirtualTimerMapper::VirtTimerIndexMapper</title>
<path fill="none" stroke="black" d="M1595.82,-193.207C1572.94,-189.439 1548.01,-185.448 1525,-182 1424.54,-166.947 1310.09,-151.603 1227.02,-140.793"/>
<polygon fill="black" stroke="black" points="1227.42,-137.315 1217.05,-139.497 1226.51,-144.256 1227.42,-137.315"/>
</g>
<!-- VirtualTimerMapper::StartTimer&#45;&gt;VirtualTimerMapper::VirtTimerIndexMapper -->
<g id="edge15" class="edge"><title>VirtualTimerMapper::StartTimer&#45;&gt;VirtualTimerMapper::VirtTimerIndexMapper</title>
<path fill="none" stroke="black" d="M1332.49,-191.478C1287.72,-178.242 1223.19,-159.165 1175.32,-145.014"/>
<polygon fill="black" stroke="black" points="1176.26,-141.641 1165.67,-142.163 1174.27,-148.354 1176.26,-141.641"/>
</g>
<!-- VirtualTimerMapper::VirtTimerIndexMapper&#45;&gt;get_m_timer_id -->
<g id="edge21" class="edge"><title>VirtualTimerMapper::VirtTimerIndexMapper&#45;&gt;get_m_timer_id</title>
<path fill="none" stroke="black" d="M1111,-106.822C1111,-96.1903 1111,-82.306 1111,-70.2035"/>
<polygon fill="black" stroke="black" points="1114.5,-70.1532 1111,-60.1533 1107.5,-70.1533 1114.5,-70.1532"/>
</g>
<!-- HAL_COMPLETION::WaitForInterrupts&#45;&gt;HAL_Time_SetCompare -->
<g id="edge2" class="edge"><title>HAL_COMPLETION::WaitForInterrupts&#45;&gt;HAL_Time_SetCompare</title>
<path fill="none" stroke="black" d="M2944.64,-505.822C2940.66,-495.083 2935.45,-481.025 2930.94,-468.837"/>
<polygon fill="black" stroke="black" points="2934.11,-467.315 2927.35,-459.153 2927.54,-469.746 2934.11,-467.315"/>
</g>
<!-- HAL_COMPLETION::DequeueAndExec&#45;&gt;HAL_Time_SetCompare -->
<g id="edge5" class="edge"><title>HAL_COMPLETION::DequeueAndExec&#45;&gt;HAL_Time_SetCompare</title>
<path fill="none" stroke="black" d="M3225.02,-507.669C3158.58,-493.317 3059.78,-471.977 2993,-457.553"/>
<polygon fill="black" stroke="black" points="2993.49,-454.078 2982.98,-455.388 2992.02,-460.92 2993.49,-454.078"/>
</g>
<!-- HAL_CALLBACK::Execute -->
<g id="node48" class="node"><title>HAL_CALLBACK::Execute</title>
<ellipse fill="none" stroke="black" cx="4075" cy="-208" rx="117.779" ry="18"/>
<text text-anchor="middle" x="4075" y="-204.3" font-family="Times,serif" font-size="14.00">HAL_CALLBACK::Execute</text>
</g>
<!-- HAL_CALLBACK::Execute&#45;&gt;ISR_TIM1 -->
<g id="edge35" class="edge"><title>HAL_CALLBACK::Execute&#45;&gt;ISR_TIM1</title>
<path fill="none" stroke="black" d="M4008.39,-193.112C3987.52,-189.104 3964.36,-185.007 3943,-182 3744.49,-154.063 3507.23,-136.709 3398.61,-129.647"/>
<polygon fill="black" stroke="black" points="3398.71,-126.146 3388.51,-128.996 3398.26,-133.132 3398.71,-126.146"/>
</g>
<!-- HAL_CALLBACK::Execute&#45;&gt;ISR_TIM2 -->
<g id="edge29" class="edge"><title>HAL_CALLBACK::Execute&#45;&gt;ISR_TIM2</title>
<path fill="none" stroke="black" d="M4003.49,-193.688C3975.39,-189.055 3942.78,-184.416 3913,-182 3887.67,-179.945 3021.95,-182.518 2998,-174 2983.78,-168.941 2970.41,-158.976 2959.91,-149.431"/>
<polygon fill="black" stroke="black" points="2962.12,-146.699 2952.48,-142.302 2957.27,-151.75 2962.12,-146.699"/>
</g>
<!-- TIM2_IRQHandler -->
<g id="node49" class="node"><title>TIM2_IRQHandler</title>
<ellipse fill="none" stroke="black" cx="4262" cy="-283" rx="81.4863" ry="18"/>
<text text-anchor="middle" x="4262" y="-279.3" font-family="Times,serif" font-size="14.00">TIM2_IRQHandler</text>
</g>
<!-- TIM2_IRQHandler&#45;&gt;HAL_CALLBACK::Execute -->
<g id="edge28" class="edge"><title>TIM2_IRQHandler&#45;&gt;HAL_CALLBACK::Execute</title>
<path fill="none" stroke="black" d="M4223.71,-267.051C4195.24,-255.937 4156.13,-240.67 4125.16,-228.582"/>
<polygon fill="black" stroke="black" points="4126.42,-225.317 4115.83,-224.941 4123.88,-231.837 4126.42,-225.317"/>
</g>
<!-- TIM1_CC_IRQHandler -->
<g id="node50" class="node"><title>TIM1_CC_IRQHandler</title>
<ellipse fill="none" stroke="black" cx="4065" cy="-283" rx="98.2828" ry="18"/>
<text text-anchor="middle" x="4065" y="-279.3" font-family="Times,serif" font-size="14.00">TIM1_CC_IRQHandler</text>
</g>
<!-- TIM1_CC_IRQHandler&#45;&gt;HAL_CALLBACK::Execute -->
<g id="edge34" class="edge"><title>TIM1_CC_IRQHandler&#45;&gt;HAL_CALLBACK::Execute</title>
<path fill="none" stroke="black" d="M4067.37,-264.7C4068.53,-256.245 4069.95,-245.869 4071.25,-236.373"/>
<polygon fill="black" stroke="black" points="4074.76,-236.558 4072.65,-226.176 4067.82,-235.608 4074.76,-236.558"/>
</g>
</g>
</svg>
